<!DOCTYPE svg PUBLIC "-//W3C//DTD SVG 1.1//EN" "http://www.w3.org/Graphics/SVG/1.1/DTD/svg11.dtd">
<svg xmlns="http://www.w3.org/2000/svg" xmlns:xlink="http://www.w3.org/1999/xlink" version="1.1" width="211px" height="451px" viewBox="-0.5 -0.5 211 451" style="background-color: rgb(255, 255, 255);"><defs/><g><path d="M 90.86 119.14 L 43.5 166.5" fill="none" stroke="#000000" stroke-miterlimit="10" pointer-events="none"/><path d="M 39.79 170.21 L 42.27 162.78 L 43.5 166.5 L 47.22 167.73 Z" fill="#000000" stroke="#000000" stroke-miterlimit="10" pointer-events="none"/><path d="M 114.92 122.36 L 181.84 239.47" fill="none" stroke="#000000" stroke-miterlimit="10" pointer-events="none"/><path d="M 184.45 244.03 L 177.93 239.69 L 181.84 239.47 L 184.01 236.22 Z" fill="#000000" stroke="#000000" stroke-miterlimit="10" pointer-events="none"/><ellipse cx="105" cy="105" rx="20" ry="20" fill="#dae8fc" stroke="#6c8ebf" pointer-events="none"/><path d="M 185 285 L 185 318.63" fill="none" stroke="#000000" stroke-miterlimit="10" pointer-events="none"/><path d="M 185 323.88 L 181.5 316.88 L 185 318.63 L 188.5 316.88 Z" fill="#000000" stroke="#000000" stroke-miterlimit="10" pointer-events="none"/><ellipse cx="185" cy="265" rx="20" ry="20" fill="#ffe6cc" stroke="#d79b00" pointer-events="none"/><path d="M 33.24 283.22 L 88.38 405.2" fill="none" stroke="#000000" stroke-miterlimit="10" pointer-events="none"/><path d="M 90.54 409.98 L 84.47 405.04 L 88.38 405.2 L 90.85 402.16 Z" fill="#000000" stroke="#000000" stroke-miterlimit="10" pointer-events="none"/><ellipse cx="25" cy="265" rx="20" ry="20" fill="#d5e8d4" stroke="#82b366" pointer-events="none"/><path d="M 43.22 193.24 L 165.2 248.38" fill="none" stroke="#000000" stroke-miterlimit="10" pointer-events="none"/><path d="M 169.98 250.54 L 162.16 250.85 L 165.2 248.38 L 165.04 244.47 Z" fill="#000000" stroke="#000000" stroke-miterlimit="10" pointer-events="none"/><path d="M 25 205 L 25 238.63" fill="none" stroke="#000000" stroke-miterlimit="10" pointer-events="none"/><path d="M 25 243.88 L 21.5 236.88 L 25 238.63 L 28.5 236.88 Z" fill="#000000" stroke="#000000" stroke-miterlimit="10" pointer-events="none"/><ellipse cx="25" cy="185" rx="20" ry="20" fill="#ffe6cc" stroke="#d79b00" pointer-events="none"/><path d="M 170.86 359.14 L 123.5 406.5" fill="none" stroke="#000000" stroke-miterlimit="10" pointer-events="none"/><path d="M 119.79 410.21 L 122.27 402.78 L 123.5 406.5 L 127.22 407.73 Z" fill="#000000" stroke="#000000" stroke-miterlimit="10" pointer-events="none"/><ellipse cx="185" cy="345" rx="20" ry="20" fill="#d5e8d4" stroke="#82b366" pointer-events="none"/><path d="M 105 45 L 105 78.63" fill="none" stroke="#000000" stroke-miterlimit="10" pointer-events="none"/><path d="M 105 83.88 L 101.5 76.88 L 105 78.63 L 108.5 76.88 Z" fill="#000000" stroke="#000000" stroke-miterlimit="10" pointer-events="none"/><ellipse cx="105" cy="25" rx="20" ry="20" fill="#ffffff" stroke="#000000" pointer-events="none"/><ellipse cx="105" cy="425" rx="20" ry="20" fill="#ffffff" stroke="#000000" pointer-events="none"/></g></svg>